<svg width="248" height="439" viewBox="0 0 248 439" fill="none" xmlns="http://www.w3.org/2000/svg">
<rect x="236" y="319" width="12" height="120" fill="#261C3D" fill-opacity="0.8"/>
<g opacity="0.8">
<circle cx="2.5" cy="2.5" r="2.5" fill="#261B3D"/>
<circle cx="22.5" cy="2.5" r="2.5" fill="#261B3D"/>
<circle cx="42.5" cy="2.5" r="2.5" fill="#261B3D"/>
<circle cx="62.5" cy="2.5" r="2.5" fill="#261B3D"/>
<circle cx="82.5" cy="2.5" r="2.5" fill="#261B3D"/>
<circle cx="102.5" cy="2.5" r="2.5" fill="#261B3D"/>
<circle cx="122.5" cy="2.5" r="2.5" fill="#261B3D"/>
<circle cx="142.5" cy="2.5" r="2.5" fill="#261B3D"/>
<circle cx="162.5" cy="2.5" r="2.5" fill="#261B3D"/>
<circle cx="182.5" cy="2.5" r="2.5" fill="#261B3D"/>
<circle cx="202.5" cy="2.5" r="2.5" fill="#261B3D"/>
<circle cx="222.5" cy="2.5" r="2.5" fill="#261B3D"/>
<circle cx="242.5" cy="2.5" r="2.5" fill="#261B3D"/>
<circle cx="2.5" cy="22.5" r="2.5" fill="#261B3D"/>
<circle cx="22.5" cy="22.5" r="2.5" fill="#261B3D"/>
<circle cx="42.5" cy="22.5" r="2.5" fill="#261B3D"/>
<circle cx="62.5" cy="22.5" r="2.5" fill="#261B3D"/>
<circle cx="82.5" cy="22.5" r="2.5" fill="#261B3D"/>
<circle cx="102.5" cy="22.5" r="2.5" fill="#261B3D"/>
<circle cx="122.5" cy="22.5" r="2.5" fill="#261B3D"/>
<circle cx="142.5" cy="22.5" r="2.5" fill="#261B3D"/>
<circle cx="162.5" cy="22.5" r="2.5" fill="#261B3D"/>
<circle cx="182.5" cy="22.5" r="2.5" fill="#261B3D"/>
<circle cx="202.5" cy="22.5" r="2.5" fill="#261B3D"/>
<circle cx="222.5" cy="22.5" r="2.5" fill="#261B3D"/>
<circle cx="242.5" cy="22.5" r="2.5" fill="#261B3D"/>
<circle cx="2.5" cy="42.5" r="2.5" fill="#261B3D"/>
<circle cx="22.5" cy="42.5" r="2.5" fill="#261B3D"/>
<circle cx="42.5" cy="42.5" r="2.5" fill="#261B3D"/>
<circle cx="62.5" cy="42.5" r="2.5" fill="#261B3D"/>
<circle cx="82.5" cy="42.5" r="2.5" fill="#261B3D"/>
<circle cx="102.5" cy="42.5" r="2.5" fill="#261B3D"/>
<circle cx="122.5" cy="42.5" r="2.5" fill="#261B3D"/>
<circle cx="142.5" cy="42.5" r="2.5" fill="#261B3D"/>
<circle cx="162.5" cy="42.5" r="2.5" fill="#261B3D"/>
<circle cx="182.5" cy="42.5" r="2.5" fill="#261B3D"/>
<circle cx="202.5" cy="42.5" r="2.5" fill="#261B3D"/>
<circle cx="222.5" cy="42.5" r="2.5" fill="#261B3D"/>
<circle cx="242.5" cy="42.5" r="2.5" fill="#261B3D"/>
<circle cx="2.5" cy="62.5" r="2.5" fill="#261B3D"/>
<circle cx="22.5" cy="62.5" r="2.5" fill="#261B3D"/>
<circle cx="42.5" cy="62.5" r="2.5" fill="#261B3D"/>
<circle cx="62.5" cy="62.5" r="2.5" fill="#261B3D"/>
<circle cx="82.5" cy="62.5" r="2.5" fill="#261B3D"/>
<circle cx="102.5" cy="62.5" r="2.5" fill="#261B3D"/>
<circle cx="122.5" cy="62.5" r="2.5" fill="#261B3D"/>
<circle cx="142.5" cy="62.5" r="2.5" fill="#261B3D"/>
<circle cx="162.5" cy="62.5" r="2.5" fill="#261B3D"/>
<circle cx="182.5" cy="62.5" r="2.5" fill="#261B3D"/>
<circle cx="202.5" cy="62.5" r="2.5" fill="#261B3D"/>
<circle cx="222.5" cy="62.5" r="2.5" fill="#261B3D"/>
<circle cx="242.5" cy="62.5" r="2.5" fill="#261B3D"/>
<circle cx="2.5" cy="82.5" r="2.5" fill="#261B3D"/>
<circle cx="22.5" cy="82.5" r="2.5" fill="#261B3D"/>
<circle cx="42.5" cy="82.5" r="2.5" fill="#261B3D"/>
<circle cx="62.5" cy="82.5" r="2.5" fill="#261B3D"/>
<circle cx="82.5" cy="82.5" r="2.5" fill="#261B3D"/>
<circle cx="102.5" cy="82.5" r="2.5" fill="#261B3D"/>
<circle cx="122.5" cy="82.5" r="2.5" fill="#261B3D"/>
<circle cx="142.5" cy="82.5" r="2.5" fill="#261B3D"/>
<circle cx="162.5" cy="82.5" r="2.5" fill="#261B3D"/>
<circle cx="182.5" cy="82.5" r="2.5" fill="#261B3D"/>
<circle cx="202.5" cy="82.5" r="2.5" fill="#261B3D"/>
<circle cx="222.5" cy="82.5" r="2.5" fill="#261B3D"/>
<circle cx="242.5" cy="82.5" r="2.5" fill="#261B3D"/>
<circle cx="2.5" cy="102.5" r="2.5" fill="#261B3D"/>
<circle cx="22.5" cy="102.5" r="2.5" fill="#261B3D"/>
<circle cx="42.5" cy="102.5" r="2.5" fill="#261B3D"/>
<circle cx="62.5" cy="102.5" r="2.5" fill="#261B3D"/>
<circle cx="82.5" cy="102.5" r="2.5" fill="#261B3D"/>
<circle cx="102.5" cy="102.5" r="2.5" fill="#261B3D"/>
<circle cx="122.5" cy="102.5" r="2.5" fill="#261B3D"/>
<circle cx="142.5" cy="102.5" r="2.5" fill="#261B3D"/>
<circle cx="162.5" cy="102.5" r="2.5" fill="#261B3D"/>
<circle cx="182.5" cy="102.5" r="2.5" fill="#261B3D"/>
<circle cx="202.5" cy="102.5" r="2.5" fill="#261B3D"/>
<circle cx="222.5" cy="102.5" r="2.5" fill="#261B3D"/>
<circle cx="242.5" cy="102.5" r="2.5" fill="#261B3D"/>
<circle cx="2.5" cy="122.5" r="2.5" fill="#261B3D"/>
<circle cx="22.5" cy="122.5" r="2.5" fill="#261B3D"/>
<circle cx="42.5" cy="122.5" r="2.5" fill="#261B3D"/>
<circle cx="62.5" cy="122.5" r="2.5" fill="#261B3D"/>
<circle cx="82.5" cy="122.5" r="2.5" fill="#261B3D"/>
<circle cx="102.5" cy="122.5" r="2.5" fill="#261B3D"/>
<circle cx="122.5" cy="122.5" r="2.5" fill="#261B3D"/>
<circle cx="142.5" cy="122.5" r="2.5" fill="#261B3D"/>
<circle cx="162.5" cy="122.5" r="2.5" fill="#261B3D"/>
<circle cx="182.5" cy="122.5" r="2.5" fill="#261B3D"/>
<circle cx="202.5" cy="122.5" r="2.5" fill="#261B3D"/>
<circle cx="222.5" cy="122.5" r="2.5" fill="#261B3D"/>
<circle cx="242.5" cy="122.5" r="2.5" fill="#261B3D"/>
<circle cx="2.5" cy="142.5" r="2.5" fill="#261B3D"/>
<circle cx="22.5" cy="142.5" r="2.5" fill="#261B3D"/>
<circle cx="42.5" cy="142.5" r="2.5" fill="#261B3D"/>
<circle cx="62.5" cy="142.5" r="2.5" fill="#261B3D"/>
<circle cx="82.5" cy="142.5" r="2.5" fill="#261B3D"/>
<circle cx="102.5" cy="142.5" r="2.5" fill="#261B3D"/>
<circle cx="122.5" cy="142.5" r="2.5" fill="#261B3D"/>
<circle cx="142.5" cy="142.5" r="2.5" fill="#261B3D"/>
<circle cx="162.5" cy="142.5" r="2.5" fill="#261B3D"/>
<circle cx="182.5" cy="142.5" r="2.5" fill="#261B3D"/>
<circle cx="202.5" cy="142.5" r="2.5" fill="#261B3D"/>
<circle cx="222.5" cy="142.5" r="2.5" fill="#261B3D"/>
<circle cx="242.5" cy="142.5" r="2.5" fill="#261B3D"/>
<circle cx="2.5" cy="162.5" r="2.5" fill="#261B3D"/>
<circle cx="22.5" cy="162.5" r="2.5" fill="#261B3D"/>
<circle cx="42.5" cy="162.5" r="2.5" fill="#261B3D"/>
<circle cx="62.5" cy="162.5" r="2.5" fill="#261B3D"/>
<circle cx="82.5" cy="162.5" r="2.5" fill="#261B3D"/>
<circle cx="102.5" cy="162.5" r="2.5" fill="#261B3D"/>
<circle cx="122.5" cy="162.5" r="2.5" fill="#261B3D"/>
<circle cx="142.5" cy="162.5" r="2.5" fill="#261B3D"/>
<circle cx="162.5" cy="162.5" r="2.5" fill="#261B3D"/>
<circle cx="182.5" cy="162.5" r="2.5" fill="#261B3D"/>
<circle cx="202.5" cy="162.5" r="2.5" fill="#261B3D"/>
<circle cx="222.5" cy="162.5" r="2.5" fill="#261B3D"/>
<circle cx="242.5" cy="162.5" r="2.5" fill="#261B3D"/>
<circle cx="2.5" cy="182.5" r="2.5" fill="#261B3D"/>
<circle cx="22.5" cy="182.5" r="2.5" fill="#261B3D"/>
<circle cx="42.5" cy="182.5" r="2.5" fill="#261B3D"/>
<circle cx="62.5" cy="182.5" r="2.5" fill="#261B3D"/>
<circle cx="82.5" cy="182.5" r="2.5" fill="#261B3D"/>
<circle cx="102.5" cy="182.5" r="2.5" fill="#261B3D"/>
<circle cx="122.5" cy="182.5" r="2.5" fill="#261B3D"/>
<circle cx="142.5" cy="182.5" r="2.5" fill="#261B3D"/>
<circle cx="162.5" cy="182.5" r="2.5" fill="#261B3D"/>
<circle cx="182.5" cy="182.5" r="2.5" fill="#261B3D"/>
<circle cx="202.5" cy="182.5" r="2.5" fill="#261B3D"/>
<circle cx="222.5" cy="182.5" r="2.5" fill="#261B3D"/>
<circle cx="242.5" cy="182.5" r="2.5" fill="#261B3D"/>
<circle cx="2.5" cy="202.5" r="2.5" fill="#261B3D"/>
<circle cx="22.5" cy="202.5" r="2.5" fill="#261B3D"/>
<circle cx="42.5" cy="202.5" r="2.5" fill="#261B3D"/>
<circle cx="62.5" cy="202.5" r="2.5" fill="#261B3D"/>
<circle cx="82.5" cy="202.5" r="2.5" fill="#261B3D"/>
<circle cx="102.5" cy="202.5" r="2.5" fill="#261B3D"/>
<circle cx="122.5" cy="202.5" r="2.5" fill="#261B3D"/>
<circle cx="142.5" cy="202.5" r="2.5" fill="#261B3D"/>
<circle cx="162.5" cy="202.5" r="2.5" fill="#261B3D"/>
<circle cx="182.5" cy="202.5" r="2.5" fill="#261B3D"/>
<circle cx="202.5" cy="202.5" r="2.5" fill="#261B3D"/>
<circle cx="222.5" cy="202.5" r="2.5" fill="#261B3D"/>
<circle cx="242.5" cy="202.5" r="2.5" fill="#261B3D"/>
<circle cx="2.5" cy="222.5" r="2.5" fill="#261B3D"/>
<circle cx="22.5" cy="222.5" r="2.5" fill="#261B3D"/>
<circle cx="42.5" cy="222.5" r="2.5" fill="#261B3D"/>
<circle cx="62.5" cy="222.5" r="2.5" fill="#261B3D"/>
<circle cx="82.5" cy="222.5" r="2.5" fill="#261B3D"/>
<circle cx="102.5" cy="222.5" r="2.5" fill="#261B3D"/>
<circle cx="122.5" cy="222.5" r="2.5" fill="#261B3D"/>
<circle cx="142.5" cy="222.5" r="2.5" fill="#261B3D"/>
<circle cx="162.5" cy="222.5" r="2.5" fill="#261B3D"/>
<circle cx="182.5" cy="222.5" r="2.5" fill="#261B3D"/>
<circle cx="202.5" cy="222.5" r="2.5" fill="#261B3D"/>
<circle cx="222.5" cy="222.5" r="2.5" fill="#261B3D"/>
<circle cx="242.5" cy="222.5" r="2.5" fill="#261B3D"/>
<circle cx="2.5" cy="242.5" r="2.5" fill="#261B3D"/>
<circle cx="22.5" cy="242.5" r="2.5" fill="#261B3D"/>
<circle cx="42.5" cy="242.5" r="2.5" fill="#261B3D"/>
<circle cx="62.5" cy="242.5" r="2.5" fill="#261B3D"/>
<circle cx="82.5" cy="242.5" r="2.5" fill="#261B3D"/>
<circle cx="102.5" cy="242.5" r="2.5" fill="#261B3D"/>
<circle cx="122.5" cy="242.5" r="2.5" fill="#261B3D"/>
<circle cx="142.5" cy="242.5" r="2.5" fill="#261B3D"/>
<circle cx="162.5" cy="242.5" r="2.5" fill="#261B3D"/>
<circle cx="182.5" cy="242.5" r="2.5" fill="#261B3D"/>
<circle cx="202.5" cy="242.5" r="2.5" fill="#261B3D"/>
<circle cx="222.5" cy="242.5" r="2.5" fill="#261B3D"/>
<circle cx="242.5" cy="242.5" r="2.5" fill="#261B3D"/>
</g>
</svg>
