<svg width="121" height="54" viewBox="0 0 121 54" fill="none" xmlns="http://www.w3.org/2000/svg">
<rect width="121" height="54" fill="url(#paint0_linear_113_5215)"/>
<path d="M23.3381 42.554C20.9991 42.554 18.9915 41.9621 17.3153 40.7784C15.6487 39.5852 14.3655 37.8665 13.4659 35.6222C12.5758 33.3684 12.1307 30.6553 12.1307 27.483C12.1402 24.3106 12.59 21.6117 13.4801 19.3864C14.3797 17.1515 15.6629 15.447 17.3295 14.2727C19.0057 13.0985 21.0085 12.5114 23.3381 12.5114C25.6676 12.5114 27.6705 13.0985 29.3466 14.2727C31.0227 15.447 32.3059 17.1515 33.196 19.3864C34.0956 21.6212 34.5455 24.3201 34.5455 27.483C34.5455 30.6648 34.0956 33.3826 33.196 35.6364C32.3059 37.8807 31.0227 39.5947 29.3466 40.7784C27.6799 41.9621 25.6771 42.554 23.3381 42.554ZM23.3381 38.108C25.1563 38.108 26.5909 37.2131 27.642 35.4233C28.7027 33.6241 29.233 30.9773 29.233 27.483C29.233 25.1723 28.9915 23.2311 28.5085 21.6591C28.0256 20.0871 27.3438 18.9034 26.4631 18.108C25.5824 17.303 24.5407 16.9006 23.3381 16.9006C21.5294 16.9006 20.0994 17.8002 19.0483 19.5994C17.9972 21.3892 17.4669 24.017 17.4574 27.483C17.4479 29.803 17.6799 31.7538 18.1534 33.3352C18.6364 34.9167 19.3182 36.1098 20.1989 36.9148C21.0795 37.7102 22.1259 38.108 23.3381 38.108ZM51.0973 12.9091V42H45.8274V18.0369H45.657L38.853 22.3835V17.554L46.0831 12.9091H51.0973Z" fill="#8E98A8" fill-opacity="0.1"/>
<defs>
<linearGradient id="paint0_linear_113_5215" x1="0" y1="27" x2="121" y2="27" gradientUnits="userSpaceOnUse">
<stop stop-color="#232337"/>
<stop offset="1" stop-color="#13131E"/>
</linearGradient>
</defs>
</svg>
