<svg width="121" height="54" viewBox="0 0 121 54" fill="none" xmlns="http://www.w3.org/2000/svg">
<rect width="121" height="54" fill="url(#paint0_linear_113_5233)"/>
<path d="M23.3381 42.554C20.9991 42.554 18.9915 41.9621 17.3153 40.7784C15.6487 39.5852 14.3655 37.8665 13.4659 35.6222C12.5758 33.3684 12.1307 30.6553 12.1307 27.483C12.1402 24.3106 12.59 21.6117 13.4801 19.3864C14.3797 17.1515 15.6629 15.447 17.3295 14.2727C19.0057 13.0985 21.0085 12.5114 23.3381 12.5114C25.6676 12.5114 27.6705 13.0985 29.3466 14.2727C31.0227 15.447 32.3059 17.1515 33.196 19.3864C34.0956 21.6212 34.5455 24.3201 34.5455 27.483C34.5455 30.6648 34.0956 33.3826 33.196 35.6364C32.3059 37.8807 31.0227 39.5947 29.3466 40.7784C27.6799 41.9621 25.6771 42.554 23.3381 42.554ZM23.3381 38.108C25.1563 38.108 26.5909 37.2131 27.642 35.4233C28.7027 33.6241 29.233 30.9773 29.233 27.483C29.233 25.1723 28.9915 23.2311 28.5085 21.6591C28.0256 20.0871 27.3438 18.9034 26.4631 18.108C25.5824 17.303 24.5407 16.9006 23.3381 16.9006C21.5294 16.9006 20.0994 17.8002 19.0483 19.5994C17.9972 21.3892 17.4669 24.017 17.4574 27.483C17.4479 29.803 17.6799 31.7538 18.1534 33.3352C18.6364 34.9167 19.3182 36.1098 20.1989 36.9148C21.0795 37.7102 22.1259 38.108 23.3381 38.108ZM49.7053 42.3977C47.6598 42.3977 45.8416 42.0473 44.2507 41.3466C42.6693 40.6458 41.4193 39.6705 40.5007 38.4205C39.5821 37.1705 39.0945 35.7263 39.0376 34.0881H44.3786C44.4259 34.8741 44.6863 35.5606 45.1598 36.1477C45.6333 36.7254 46.263 37.1752 47.049 37.4972C47.835 37.8191 48.7157 37.9801 49.6911 37.9801C50.7327 37.9801 51.656 37.8002 52.4609 37.4403C53.2659 37.071 53.8956 36.5597 54.3501 35.9062C54.8047 35.2528 55.0272 34.5 55.0178 33.6477C55.0272 32.767 54.8 31.9905 54.3359 31.3182C53.8719 30.6458 53.1996 30.1203 52.3189 29.7415C51.4477 29.3627 50.3965 29.1733 49.1655 29.1733H46.5945V25.1108H49.1655C50.1787 25.1108 51.0642 24.9356 51.8217 24.5852C52.5888 24.2348 53.1901 23.7424 53.6257 23.108C54.0613 22.464 54.2744 21.7206 54.2649 20.8778C54.2744 20.054 54.0897 19.339 53.7109 18.733C53.3416 18.1174 52.8161 17.6392 52.1342 17.2983C51.4619 16.9574 50.6712 16.7869 49.7621 16.7869C48.8719 16.7869 48.0481 16.9479 47.2905 17.2699C46.5329 17.5919 45.9221 18.0511 45.4581 18.6477C44.9941 19.2348 44.7479 19.9356 44.7195 20.75H39.6484C39.6863 19.1212 40.1551 17.6913 41.0547 16.4602C41.9638 15.2197 43.1759 14.2538 44.6911 13.5625C46.2062 12.8617 47.906 12.5114 49.7905 12.5114C51.7318 12.5114 53.4174 12.8759 54.8473 13.6051C56.2867 14.3248 57.3994 15.2955 58.1854 16.517C58.9714 17.7386 59.3643 19.0881 59.3643 20.5653C59.3738 22.2036 58.8909 23.5767 57.9155 24.6847C56.9496 25.7926 55.6806 26.517 54.1087 26.858V27.0852C56.1541 27.3693 57.7214 28.1269 58.8104 29.358C59.9089 30.5795 60.4534 32.0994 60.4439 33.9176C60.4439 35.5464 59.9799 37.0047 59.0518 38.2926C58.1333 39.571 56.8643 40.5748 55.245 41.304C53.6352 42.0331 51.7886 42.3977 49.7053 42.3977Z" fill="#8E98A8" fill-opacity="0.1"/>
<defs>
<linearGradient id="paint0_linear_113_5233" x1="0" y1="27" x2="121" y2="27" gradientUnits="userSpaceOnUse">
<stop stop-color="#232337"/>
<stop offset="1" stop-color="#13131E"/>
</linearGradient>
</defs>
</svg>
