<svg width="24" height="24" viewBox="0 0 24 24" fill="none" xmlns="http://www.w3.org/2000/svg">
<path d="M16.7298 2.06494H7.26979C6.64241 2.10263 6.05524 2.38633 5.63583 2.85443C5.21641 3.32253 4.99863 3.93721 5.02979 4.56494V19.4349C4.99863 20.0627 5.21641 20.6774 5.63583 21.1455C6.05524 21.6135 6.64241 21.8973 7.26979 21.9349H16.7298C17.3572 21.8973 17.9443 21.6135 18.3638 21.1455C18.7832 20.6774 19.001 20.0627 18.9698 19.4349V4.56494C19.001 3.93721 18.7832 3.32253 18.3638 2.85443C17.9443 2.38633 17.3572 2.10263 16.7298 2.06494ZM17.9698 19.4349C18.0003 19.7975 17.8876 20.1575 17.6558 20.4379C17.424 20.7183 17.0916 20.8967 16.7298 20.9349H7.26979C6.908 20.8967 6.57558 20.7183 6.34379 20.4379C6.11199 20.1575 5.99927 19.7975 6.02979 19.4349V4.56494C5.99927 4.20242 6.11199 3.84237 6.34379 3.56198C6.57558 3.28158 6.908 3.10315 7.26979 3.06494H8.79979V3.57494C8.79979 3.84016 8.90515 4.09451 9.09269 4.28205C9.28022 4.46958 9.53458 4.57494 9.79979 4.57494H14.1998C14.465 4.57494 14.7194 4.46958 14.9069 4.28205C15.0944 4.09451 15.1998 3.84016 15.1998 3.57494V3.06494H16.7298C17.0916 3.10315 17.424 3.28158 17.6558 3.56198C17.8876 3.84237 18.0003 4.20242 17.9698 4.56494V19.4349Z" fill="url(#paint0_linear_268_124)"/>
<path d="M10 18.934H14C14.1326 18.934 14.2598 18.8813 14.3536 18.7875C14.4473 18.6937 14.5 18.5666 14.5 18.434C14.5 18.3014 14.4473 18.1742 14.3536 18.0804C14.2598 17.9866 14.1326 17.934 14 17.934H10C9.86739 17.934 9.74021 17.9866 9.64645 18.0804C9.55268 18.1742 9.5 18.3014 9.5 18.434C9.5 18.5666 9.55268 18.6937 9.64645 18.7875C9.74021 18.8813 9.86739 18.934 10 18.934Z" fill="url(#paint1_linear_268_124)"/>
<defs>
<linearGradient id="paint0_linear_268_124" x1="11.9998" y1="2.06494" x2="11.9998" y2="21.9349" gradientUnits="userSpaceOnUse">
<stop stop-color="#DAC25A"/>
<stop offset="1" stop-color="#8E2DE2"/>
</linearGradient>
<linearGradient id="paint1_linear_268_124" x1="12" y1="17.934" x2="12" y2="18.934" gradientUnits="userSpaceOnUse">
<stop stop-color="#DAC25A"/>
<stop offset="1" stop-color="#8E2DE2"/>
</linearGradient>
</defs>
</svg>
