<svg width="24" height="24" viewBox="0 0 24 24" fill="none" xmlns="http://www.w3.org/2000/svg">
<path d="M8.08586 18.611L14.0819 4.60699C14.1826 4.37308 14.3689 4.18645 14.6026 4.08516C14.8362 3.98388 15.0998 3.97557 15.3394 4.06195C15.579 4.14832 15.7766 4.32286 15.8919 4.54995C16.0072 4.77705 16.0315 5.03958 15.9599 5.28399L15.9199 5.39399L9.92386 19.398C9.82308 19.6319 9.63685 19.8185 9.40316 19.9198C9.16948 20.0211 8.90595 20.0294 8.66635 19.943C8.42675 19.8567 8.22914 19.6821 8.11383 19.455C7.99853 19.2279 7.97422 18.9654 8.04586 18.721L8.08586 18.611ZM2.29286 11.293L6.29286 7.29299C6.47282 7.11364 6.7143 7.00951 6.96825 7.00176C7.22219 6.99401 7.46957 7.0832 7.66014 7.25124C7.85071 7.41927 7.97017 7.65354 7.99426 7.90646C8.01835 8.15939 7.94527 8.412 7.78986 8.61299L7.70686 8.70699L4.41386 12L7.70686 15.293C7.88812 15.4725 7.99389 15.7146 8.00254 15.9695C8.01119 16.2245 7.92206 16.4732 7.7534 16.6646C7.58473 16.856 7.34928 16.9757 7.09524 16.9992C6.8412 17.0227 6.58778 16.9482 6.38686 16.791L6.29286 16.707L2.29286 12.707C2.12068 12.5348 2.01725 12.3057 2.00197 12.0627C1.98669 11.8196 2.06061 11.5794 2.20986 11.387L2.29286 11.293ZM16.2929 7.29199C16.4651 7.11981 16.6942 7.01638 16.9372 7.0011C17.1802 6.98582 17.4205 7.05974 17.6129 7.20899L17.7059 7.29199L21.7069 11.293C21.879 11.4652 21.9825 11.6943 21.9977 11.9373C22.013 12.1803 21.9391 12.4206 21.7899 12.613L21.7069 12.708L17.7059 16.703C17.5259 16.8823 17.2844 16.9865 17.0305 16.9942C16.7765 17.002 16.5291 16.9128 16.3386 16.7447C16.148 16.5767 16.0286 16.3424 16.0045 16.0895C15.9804 15.8366 16.0534 15.584 16.2089 15.383L16.2929 15.288L19.5839 12L16.2909 8.70599C16.1034 8.51846 15.9981 8.26415 15.9981 7.99899C15.9981 7.73382 16.1034 7.47952 16.2909 7.29199H16.2929Z" fill="url(#paint0_linear_269_3744)"/>
<defs>
<linearGradient id="paint0_linear_269_3744" x1="11.9999" y1="4.00269" x2="11.9999" y2="20.0023" gradientUnits="userSpaceOnUse">
<stop stop-color="#DAC25A"/>
<stop offset="1" stop-color="#8E2DE2"/>
</linearGradient>
</defs>
</svg>
