<svg width="24" height="24" viewBox="0 0 24 24" fill="none" xmlns="http://www.w3.org/2000/svg">
<path opacity="0.2" d="M18 12C18 12.5933 17.8241 13.1734 17.4944 13.6667C17.1648 14.1601 16.6962 14.5446 16.148 14.7716C15.5999 14.9987 14.9967 15.0581 14.4147 14.9424C13.8328 14.8266 13.2982 14.5409 12.8787 14.1213C12.4591 13.7018 12.1734 13.1672 12.0576 12.5853C11.9419 12.0033 12.0013 11.4001 12.2284 10.8519C12.4554 10.3038 12.8399 9.83524 13.3333 9.50559C13.8266 9.17595 14.4067 9 15 9C15.7956 9 16.5587 9.31607 17.1213 9.87868C17.6839 10.4413 18 11.2044 18 12ZM8.25 9H12V3H8.25C7.45435 3 6.69129 3.31607 6.12868 3.87868C5.56607 4.44129 5.25 5.20435 5.25 6C5.25 6.79565 5.56607 7.55871 6.12868 8.12132C6.69129 8.68393 7.45435 9 8.25 9ZM5.25 18.375C5.25 19.2701 5.60558 20.1285 6.23851 20.7615C6.87145 21.3944 7.72989 21.75 8.625 21.75C9.52011 21.75 10.3785 21.3944 11.0115 20.7615C11.6444 20.1285 12 19.2701 12 18.375V15H8.625C7.72989 15 6.87145 15.3556 6.23851 15.9885C5.60558 16.6215 5.25 17.4799 5.25 18.375Z" fill="url(#paint0_linear_268_127)"/>
<path d="M17.2501 9C17.8798 8.52776 18.3449 7.86939 18.5796 7.11813C18.8142 6.36687 18.8066 5.56082 18.5577 4.81415C18.3088 4.06748 17.8313 3.41804 17.1928 2.95784C16.5543 2.49764 15.7872 2.25 15.0001 2.25H8.25013C7.46307 2.25 6.69596 2.49764 6.05747 2.95784C5.41897 3.41804 4.94146 4.06748 4.69257 4.81415C4.44368 5.56082 4.43603 6.36687 4.6707 7.11813C4.90538 7.86939 5.37048 8.52776 6.00013 9C5.52339 9.35728 5.13864 9.823 4.87774 10.3586C4.61684 10.8942 4.4873 11.4842 4.49986 12.0798C4.51241 12.6755 4.66669 13.2595 4.94993 13.7837C5.23316 14.3078 5.6372 14.7569 6.12857 15.0938C5.56966 15.5187 5.12847 16.0792 4.84675 16.7223C4.56504 17.3654 4.45213 18.0698 4.51873 18.7687C4.58532 19.4676 4.8292 20.138 5.22729 20.7163C5.62537 21.2947 6.16448 21.7618 6.79357 22.0735C7.42266 22.3853 8.12091 22.5313 8.8222 22.4978C9.5235 22.4642 10.2046 22.2522 10.8011 21.8819C11.3976 21.5115 11.8896 20.995 12.2307 20.3814C12.5718 19.7677 12.7505 19.0771 12.7501 18.375V15C13.1441 15.2955 13.5924 15.5105 14.0694 15.6327C14.5465 15.7549 15.043 15.782 15.5305 15.7123C16.018 15.6427 16.487 15.4777 16.9107 15.2268C17.3345 14.9759 17.7047 14.644 18.0001 14.25C18.2956 13.856 18.5106 13.4077 18.6328 12.9307C18.755 12.4536 18.7821 11.9572 18.7124 11.4697C18.6428 10.9822 18.4778 10.5131 18.2269 10.0894C17.976 9.66565 17.6441 9.29547 17.2501 9ZM17.2501 6C17.2501 6.59674 17.0131 7.16903 16.5911 7.59099C16.1692 8.01295 15.5969 8.25 15.0001 8.25H12.7501V3.75H15.0001C15.5969 3.75 16.1692 3.98705 16.5911 4.40901C17.0131 4.83097 17.2501 5.40326 17.2501 6ZM6.00013 6C6.00013 5.40326 6.23718 4.83097 6.65914 4.40901C7.0811 3.98705 7.65339 3.75 8.25013 3.75H11.2501V8.25H8.25013C7.65339 8.25 7.0811 8.01295 6.65914 7.59099C6.23718 7.16903 6.00013 6.59674 6.00013 6ZM8.25013 14.25C7.65339 14.25 7.0811 14.0129 6.65914 13.591C6.23718 13.169 6.00013 12.5967 6.00013 12C6.00013 11.4033 6.23718 10.831 6.65914 10.409C7.0811 9.98705 7.65339 9.75 8.25013 9.75H11.2501V14.25H8.25013ZM11.2501 18.375C11.2501 18.8942 11.0962 19.4017 10.8077 19.8334C10.5193 20.2651 10.1093 20.6015 9.62967 20.8002C9.15002 20.9989 8.62222 21.0508 8.11302 20.9496C7.60382 20.8483 7.13609 20.5983 6.76897 20.2312C6.40186 19.864 6.15185 19.3963 6.05057 18.8871C5.94928 18.3779 6.00127 17.8501 6.19995 17.3705C6.39863 16.8908 6.73508 16.4808 7.16676 16.1924C7.59844 15.904 8.10595 15.75 8.62513 15.75H11.2501V18.375ZM15.0001 14.25C14.5551 14.25 14.1201 14.118 13.7501 13.8708C13.3801 13.6236 13.0917 13.2722 12.9214 12.861C12.7511 12.4499 12.7065 11.9975 12.7934 11.561C12.8802 11.1246 13.0945 10.7237 13.4091 10.409C13.7238 10.0943 14.1247 9.88005 14.5612 9.79323C14.9976 9.70642 15.45 9.75097 15.8612 9.92127C16.2723 10.0916 16.6237 10.38 16.8709 10.75C17.1182 11.12 17.2501 11.555 17.2501 12C17.2501 12.5967 17.0131 13.169 16.5911 13.591C16.1692 14.0129 15.5969 14.25 15.0001 14.25Z" fill="url(#paint1_linear_268_127)"/>
<defs>
<linearGradient id="paint0_linear_268_127" x1="11.625" y1="3" x2="11.625" y2="21.75" gradientUnits="userSpaceOnUse">
<stop stop-color="#DAC25A"/>
<stop offset="1" stop-color="#8E2DE2"/>
</linearGradient>
<linearGradient id="paint1_linear_268_127" x1="11.6246" y1="2.25" x2="11.6246" y2="22.5025" gradientUnits="userSpaceOnUse">
<stop stop-color="#DAC25A"/>
<stop offset="1" stop-color="#8E2DE2"/>
</linearGradient>
</defs>
</svg>
