<svg width="24" height="18" viewBox="0 0 24 18" fill="none" xmlns="http://www.w3.org/2000/svg">
<g clip-path="url(#clip0_268_3005)">
<mask id="mask0_268_3005" style="mask-type:luminance" maskUnits="userSpaceOnUse" x="0" y="0" width="24" height="18">
<path d="M0 0H24V18H0V0Z" fill="white"/>
</mask>
<g mask="url(#mask0_268_3005)">
<path d="M0 0H24V18H0V0Z" fill="white"/>
<path fill-rule="evenodd" clip-rule="evenodd" d="M0 0V18H24V0H0Z" fill="#2E42A5"/>
<mask id="mask1_268_3005" style="mask-type:luminance" maskUnits="userSpaceOnUse" x="0" y="0" width="24" height="18">
<path fill-rule="evenodd" clip-rule="evenodd" d="M0 0V18H24V0H0Z" fill="white"/>
</mask>
<g mask="url(#mask1_268_3005)">
<path d="M-2.67188 16.7138L2.60962 18.948L24.1196 2.42854L26.9059 -0.890957L21.2584 -1.63721L12.4849 5.48104L5.42288 10.278L-2.67188 16.7138Z" fill="white"/>
<path d="M-1.94971 18.279L0.742043 19.575L25.9053 -1.19922H22.1275L-1.94896 18.2783L-1.94971 18.279Z" fill="#F50100"/>
<path d="M26.6725 16.7138L21.391 18.948L-0.119023 2.42854L-2.90527 -0.890957L2.74223 -1.63721L11.5157 5.48104L18.5777 10.278L26.6725 16.7138Z" fill="white"/>
<path d="M26.4924 17.8372L23.8014 19.1332L13.0869 10.2382L9.90992 9.24524L-3.17383 -0.879761H0.604672L13.6802 9.00524L17.1534 10.1962L26.4924 17.8372Z" fill="#F50100"/>
<path fill-rule="evenodd" clip-rule="evenodd" d="M14.8335 -1.5H9.1665V6H-1.479V12H9.1665V19.5H14.8335V12H25.521V6H14.8335V-1.5Z" fill="#F50100"/>
<mask id="mask2_268_3005" style="mask-type:luminance" maskUnits="userSpaceOnUse" x="-2" y="-2" width="28" height="22">
<path fill-rule="evenodd" clip-rule="evenodd" d="M14.8335 -1.5H9.1665V6H-1.479V12H9.1665V19.5H14.8335V12H25.521V6H14.8335V-1.5Z" fill="white"/>
</mask>
<g mask="url(#mask2_268_3005)">
<path d="M9.1665 -1.5V-3H7.6665V-1.5H9.1665ZM14.8335 -1.5H16.3335V-3H14.8335V-1.5ZM9.1665 6V7.5H10.6665V6H9.1665ZM-1.479 6V4.5H-2.979V6H-1.479ZM-1.479 12H-2.979V13.5H-1.479V12ZM9.1665 12H10.6665V10.5H9.1665V12ZM9.1665 19.5H7.6665V21H9.1665V19.5ZM14.8335 19.5V21H16.3335V19.5H14.8335ZM14.8335 12V10.5H13.3335V12H14.8335ZM25.521 12V13.5H27.021V12H25.521ZM25.521 6H27.021V4.5H25.521V6ZM14.8335 6H13.3335V7.5H14.8335V6ZM9.1665 0H14.8335V-3H9.1665V0ZM10.6665 6V-1.5H7.6665V6H10.6665ZM-1.479 7.5H9.1665V4.5H-1.479V7.5ZM0.0209961 12V6H-2.979V12H0.0209961ZM9.1665 10.5H-1.479V13.5H9.1665V10.5ZM10.6665 19.5V12H7.6665V19.5H10.6665ZM14.8335 18H9.1665V21H14.8335V18ZM13.3335 12V19.5H16.3335V12H13.3335ZM25.521 10.5H14.8335V13.5H25.521V10.5ZM24.021 6V12H27.021V6H24.021ZM14.8335 7.5H25.521V4.5H14.8335V7.5ZM13.3335 -1.5V6H16.3335V-1.5H13.3335Z" fill="white"/>
</g>
</g>
</g>
</g>
<defs>
<clipPath id="clip0_268_3005">
<rect width="24" height="18" fill="white"/>
</clipPath>
</defs>
</svg>
