<svg width="24" height="18" viewBox="0 0 24 18" fill="none" xmlns="http://www.w3.org/2000/svg">
<g clip-path="url(#clip0_268_3026)">
<mask id="mask0_268_3026" style="mask-type:luminance" maskUnits="userSpaceOnUse" x="0" y="0" width="24" height="18">
<path d="M0 0H24V18H0V0Z" fill="white"/>
</mask>
<g mask="url(#mask0_268_3026)">
<path d="M0 0H24V18H0V0Z" fill="white"/>
<path fill-rule="evenodd" clip-rule="evenodd" d="M6 0H24V18H6V0Z" fill="#EF0000"/>
<path fill-rule="evenodd" clip-rule="evenodd" d="M0 0H9V18H0V0Z" fill="#2F8D00"/>
<mask id="mask1_268_3026" style="mask-type:luminance" maskUnits="userSpaceOnUse" x="3" y="3" width="12" height="12">
<path fill-rule="evenodd" clip-rule="evenodd" d="M8.92883 14.8553C5.73383 14.8553 3.14258 12.234 3.14258 9.00003C3.14258 5.76603 5.73308 3.14478 8.92883 3.14478C12.1238 3.14478 14.7143 5.76603 14.7143 9.00003C14.7143 12.234 12.1238 14.8553 8.92883 14.8553Z" fill="white"/>
</mask>
<g mask="url(#mask1_268_3026)">
<path fill-rule="evenodd" clip-rule="evenodd" d="M8.5708 3H9.3208V5.02425H8.5708V3ZM8.5708 13.1205H9.3208V15H8.5708V13.1205Z" fill="#FFE017"/>
<path d="M3.23539 9.30305L3.02539 8.7653C5.33989 7.8413 7.08739 7.24505 8.27164 6.9773C10.0109 6.5828 11.9211 6.2918 14.0031 6.10205L14.0541 6.67805C11.9961 6.86555 10.1099 7.1528 8.39689 7.5413C7.24714 7.80155 5.52439 8.3888 3.23689 9.30305H3.23539Z" fill="#FFE017"/>
<path d="M14.3551 5.74803L14.1856 6.30003C12.4366 5.74803 11.0124 5.51028 9.91738 5.58378L9.87988 5.00703C11.0551 4.92828 12.5454 5.17653 14.3559 5.74803H14.3551ZM14.9611 8.83503L14.6379 9.31203C13.7454 8.69253 12.6474 8.38203 11.3349 8.38203V7.80378C12.7584 7.80378 13.9689 8.14653 14.9611 8.83503Z" fill="#FFE017"/>
<path d="M14.4763 9.00745L14.624 9.5662C12.7018 10.0874 10.8973 10.3822 9.21054 10.4519C7.51179 10.5224 5.53179 10.2254 3.26904 9.5647L3.42729 9.0097C5.63529 9.65395 7.55604 9.9412 9.18729 9.87445C10.8298 9.80695 12.593 9.51745 14.4763 9.00745Z" fill="#FFE017"/>
<path d="M14.2588 11.727L13.3551 12.6532C11.6391 10.938 10.1278 9.71171 8.83105 8.97521C7.51255 8.22521 5.7928 7.46471 3.6748 6.69521L4.10905 5.47046C6.2893 6.26246 8.07205 7.05146 9.4603 7.84046C10.8703 8.64146 12.4671 9.93671 14.2588 11.727ZM4.0933 12.2512L3.7513 11.7877C4.03434 11.5852 4.33218 11.4042 4.6423 11.2462C5.2798 10.9237 5.91955 10.7212 6.53005 10.7025L6.6193 10.701V11.2792C6.5953 11.2792 6.5713 11.2792 6.5473 11.2807C6.0328 11.2957 5.46805 11.4742 4.8988 11.7637C4.61869 11.9062 4.34946 12.0691 4.0933 12.2512Z" fill="#FFE017"/>
<path d="M4.35871 12.4523L4.50271 11.8921C6.40771 12.3946 7.87621 12.6443 8.90146 12.6443C9.92296 12.6443 11.4425 12.3488 13.4517 11.7571L13.6115 12.3121C11.555 12.9181 9.98896 13.2226 8.90146 13.2226C7.81846 13.2226 6.30646 12.9653 4.35871 12.4523ZM3.61621 7.27056L4.52221 6.34656L5.84821 7.67706L4.94296 8.60106L3.61621 7.27056Z" fill="#FFE017"/>
<path d="M11.127 11.886L11.8005 10.7775L13.9027 12.0855L13.23 13.194L11.127 11.886Z" fill="#FFE017"/>
</g>
<path fill-rule="evenodd" clip-rule="evenodd" d="M3.14258 9.00003C3.14258 12.234 5.73308 14.8553 8.92883 14.8553C12.1238 14.8553 14.7143 12.234 14.7143 9.00003C14.7143 5.76603 12.1238 3.14478 8.92883 3.14478C5.73383 3.14478 3.14258 5.76603 3.14258 9.00003ZM14.0003 9.07203C14.0003 11.8673 11.7616 14.1323 9.00008 14.1323C6.23858 14.1323 3.99983 11.8673 3.99983 9.07203C3.99983 6.27753 6.23858 4.01253 9.00008 4.01253C11.7616 4.01253 14.0003 6.27828 14.0003 9.07278V9.07203Z" fill="#F9E813"/>
<path d="M5.74268 5.38879V10.0845C6.05168 11.943 7.09268 12.8723 8.86643 12.8723C10.6402 12.8723 11.6812 11.943 11.9902 10.0845V5.38954L5.74268 5.38879Z" fill="white"/>
<path d="M5.31396 4.9552H12.4195V10.1205L12.4135 10.1564C12.07 12.2204 10.8535 13.3064 8.86671 13.3064C6.87996 13.3064 5.66346 12.2204 5.31996 10.1564L5.31396 10.1205V4.9552Z" fill="#C51918"/>
<path d="M6.93896 6.53247H10.794V9.86397C10.794 9.86397 10.5082 11.5837 8.86646 11.5837C7.22546 11.5837 6.93896 9.86397 6.93896 9.86397V6.53247Z" fill="#F7FCFF"/>
<path fill-rule="evenodd" clip-rule="evenodd" d="M6 5.31299H6.54225V5.67449H6V5.31299Z" fill="#F9E813"/>
<path fill-rule="evenodd" clip-rule="evenodd" d="M5.71436 5.45776H6.71411V5.63851H5.71511V5.45851L5.71436 5.45776Z" fill="#060101"/>
<path fill-rule="evenodd" clip-rule="evenodd" d="M5.71436 5.60254H6.25661V5.78254H5.71436V5.60254ZM6.28586 5.60254H6.82811V5.78254H6.28511L6.28586 5.60254ZM5.71436 6.03604H6.07586V6.57829H5.71436V6.03604ZM6.42836 6.03604H6.78986V6.57829H6.42836V6.03604ZM6.14261 6.03604H6.32336V6.57829H6.14336V6.03604H6.14261Z" fill="#F9E813"/>
<path fill-rule="evenodd" clip-rule="evenodd" d="M5.71436 5.89124H6.71411V6.07199H5.71511V5.89199L5.71436 5.89124ZM5.71436 6.32549H6.71411V6.50549H5.71511L5.71436 6.32549Z" fill="#060101"/>
<path fill-rule="evenodd" clip-rule="evenodd" d="M5.85742 5.74724H6.03742V5.92724H5.85742V5.74724ZM6.42817 5.74724H6.60892V5.92724H6.42892L6.42817 5.74724ZM6.14242 5.60249H6.32317V5.96399H6.14317V5.60249H6.14242ZM8.71417 5.31299H9.25642V5.67449H8.71417V5.31299Z" fill="#F9E813"/>
<path fill-rule="evenodd" clip-rule="evenodd" d="M8.42871 5.45776H9.42846V5.63851H8.42871V5.45776Z" fill="#060101"/>
<path fill-rule="evenodd" clip-rule="evenodd" d="M8.42871 5.60254H8.97096V5.78254H8.42871V5.60254ZM9.00021 5.60254H9.54246V5.78254H9.00021V5.60254ZM8.42871 6.03604H8.79021V6.57829H8.42871V6.03604ZM9.14271 6.03604H9.50421V6.57829H9.14271V6.03604ZM8.85771 6.03604H9.03771V6.57829H8.85771V6.03604Z" fill="#F9E813"/>
<path fill-rule="evenodd" clip-rule="evenodd" d="M8.42871 5.89124H9.42846V6.07199H8.42871V5.89124ZM8.42871 6.32549H9.42846V6.50549H8.42871V6.32549Z" fill="#060101"/>
<path fill-rule="evenodd" clip-rule="evenodd" d="M8.5708 5.74724H8.75155V5.92724H8.57155L8.5708 5.74724ZM9.1423 5.74724H9.32305V5.92724H9.14305V5.74724H9.1423ZM8.8573 5.60249H9.0373V5.96399H8.8573V5.60249ZM11.2858 5.31299H11.8281V5.67449H11.2858V5.31299Z" fill="#F9E813"/>
<path fill-rule="evenodd" clip-rule="evenodd" d="M11.0005 5.45776H12.0002V5.63851H11.0005V5.45776Z" fill="#060101"/>
<path fill-rule="evenodd" clip-rule="evenodd" d="M11.0005 5.60254H11.5427V5.78254H11.0005V5.60254ZM11.572 5.60254H12.1135V5.78254H11.572V5.60254ZM11.0005 6.03604H11.362V6.57829H11.0005V6.03604ZM11.7145 6.03604H12.076V6.57829H11.7145V6.03604ZM11.4287 6.03604H11.6095V6.57829H11.4287V6.03604Z" fill="#F9E813"/>
<path fill-rule="evenodd" clip-rule="evenodd" d="M11.0005 5.89124H12.0002V6.07199H11.0005V5.89124ZM11.0005 6.32549H12.0002V6.50549H11.0005V6.32549Z" fill="#060101"/>
<path fill-rule="evenodd" clip-rule="evenodd" d="M11.1426 5.74729H11.3233V5.92729H11.1433L11.1426 5.74729ZM11.7141 5.74729H11.8948V5.92729H11.7141V5.74729ZM11.4283 5.60254H11.6091V5.96404H11.4283V5.60254ZM11.2858 7.91554H11.8281V8.27704H11.2858V7.91554Z" fill="#F9E813"/>
<path fill-rule="evenodd" clip-rule="evenodd" d="M11.0005 8.0603H12.0002V8.24105H11.0005V8.0603Z" fill="#060101"/>
<path fill-rule="evenodd" clip-rule="evenodd" d="M11.0005 8.20496H11.5427V8.38496H11.0005V8.20496ZM11.572 8.20496H12.1135V8.38496H11.572V8.20496ZM11.0005 8.63846H11.362V9.18071H11.0005V8.63846ZM11.7145 8.63846H12.076V9.18071H11.7145V8.63846ZM11.4287 8.63846H11.6095V9.18071H11.4287V8.63846Z" fill="#F9E813"/>
<path fill-rule="evenodd" clip-rule="evenodd" d="M11.0005 8.49377H12.0002V8.67452H11.0005V8.49452V8.49377ZM11.0005 8.92802H12.0002V9.10802H11.0005V8.92802Z" fill="#060101"/>
<path fill-rule="evenodd" clip-rule="evenodd" d="M11.1427 8.34978H11.3235V8.52978H11.1435L11.1427 8.34978ZM11.7142 8.34978H11.895V8.52978H11.7142V8.34978ZM11.4285 8.20503H11.6092V8.56653H11.4285V8.20503ZM6 7.91553H6.54225V8.27703H6V7.91553Z" fill="#F9E813"/>
<path fill-rule="evenodd" clip-rule="evenodd" d="M5.71436 8.0603H6.71411V8.24105H5.71511L5.71436 8.0603Z" fill="#060101"/>
<path fill-rule="evenodd" clip-rule="evenodd" d="M5.71436 8.20496H6.25661V8.38496H5.71436V8.20496ZM6.28586 8.20496H6.82811V8.38496H6.28511L6.28586 8.20496ZM5.71436 8.63846H6.07586V9.18071H5.71436V8.63846ZM6.42836 8.63846H6.78986V9.18071H6.42836V8.63846ZM6.14261 8.63846H6.32336V9.18071H6.14336V8.63846H6.14261Z" fill="#F9E813"/>
<path fill-rule="evenodd" clip-rule="evenodd" d="M5.71436 8.49377H6.71411V8.67452H5.71511V8.49452L5.71436 8.49377ZM5.71436 8.92802H6.71411V9.10802H5.71511L5.71436 8.92802Z" fill="#060101"/>
<path fill-rule="evenodd" clip-rule="evenodd" d="M5.85742 8.34971H6.03742V8.52971H5.85742V8.34971ZM6.42817 8.34971H6.60892V8.52971H6.42892L6.42817 8.34971ZM6.14242 8.20496H6.32317V8.56646H6.14317V8.20496H6.14242ZM6.34792 11.178L6.69592 10.7625L6.97342 10.995L6.62467 11.4105L6.34792 11.178Z" fill="#F9E813"/>
<path fill-rule="evenodd" clip-rule="evenodd" d="M6.27539 11.49L6.91814 10.7235L7.05614 10.8398L6.41339 11.6063L6.27539 11.49Z" fill="#060101"/>
<path fill-rule="evenodd" clip-rule="evenodd" d="M6.38574 11.583L6.73449 11.1675L6.87249 11.2837L6.52449 11.6985L6.38574 11.583ZM6.75324 11.145L7.10199 10.7295L7.23999 10.8457L6.89124 11.2612L6.75324 11.145ZM6.71799 11.8612L6.95049 11.5845L7.36599 11.9332L7.13349 12.21L6.71799 11.8612ZM7.17774 11.3145L7.41024 11.037L7.82499 11.3857L7.59249 11.6632L7.17774 11.3145ZM6.99399 11.5335L7.10949 11.3947L7.52499 11.7435L7.40874 11.8815L6.99399 11.5335Z" fill="#F9E813"/>
<path fill-rule="evenodd" clip-rule="evenodd" d="M6.60742 11.7682L7.25017 11.0024L7.38817 11.1187L6.74542 11.8844L6.60742 11.7682ZM6.93967 12.0472L7.58242 11.2814L7.72042 11.3977L7.07767 12.1634L6.93967 12.0472Z" fill="#060101"/>
<path fill-rule="evenodd" clip-rule="evenodd" d="M6.58789 11.5665L6.70414 11.4277L6.84289 11.544L6.72664 11.682L6.58789 11.5665ZM6.95539 11.1285L7.07164 10.9897L7.21039 11.106L7.09414 11.2447L6.95539 11.1285ZM6.66064 11.2545L6.77689 11.1157L7.05439 11.3482L6.93814 11.487L6.66064 11.2545ZM11.2334 10.8495L11.5821 11.265L11.3046 11.4975L10.9566 11.082L11.2341 10.8495H11.2334Z" fill="#F9E813"/>
<path fill-rule="evenodd" clip-rule="evenodd" d="M10.9395 10.7235L11.5823 11.49L11.4435 11.6063L10.8008 10.8398L10.9395 10.7235Z" fill="#060101"/>
<path fill-rule="evenodd" clip-rule="evenodd" d="M10.8283 10.8165L11.1771 11.232L11.0383 11.3483L10.6903 10.9328L10.8283 10.8165ZM11.1958 11.2545L11.5446 11.67L11.4058 11.7855L11.0571 11.3708L11.1958 11.2545ZM10.4961 11.0955L10.7286 11.373L10.3131 11.721L10.0806 11.4435L10.4961 11.0955ZM10.9551 11.643L11.1876 11.9198L10.7721 12.2678L10.5396 11.991L10.9551 11.643ZM10.7713 11.424L10.8876 11.562L10.4728 11.9108L10.3566 11.772L10.7713 11.424Z" fill="#F9E813"/>
<path fill-rule="evenodd" clip-rule="evenodd" d="M10.6072 11.0024L11.25 11.7682L11.1112 11.8844L10.4685 11.1187L10.6072 11.0024ZM10.275 11.2814L10.9177 12.0472L10.779 12.1634L10.1362 11.3977L10.275 11.2814Z" fill="#060101"/>
<path fill-rule="evenodd" clip-rule="evenodd" d="M10.8096 11.019L10.9259 11.1578L10.7871 11.2733L10.6709 11.1353L10.8096 11.019ZM11.1771 11.457L11.2934 11.595L11.1546 11.7113L11.0384 11.5733L11.1771 11.457ZM11.1044 11.145L11.2199 11.283L10.9431 11.5155L10.8269 11.3775L11.1044 11.145Z" fill="#F9E813"/>
<path fill-rule="evenodd" clip-rule="evenodd" d="M9.41857 6.90381H8.42857V7.62456C8.42857 7.62456 8.50207 7.99731 8.92357 7.99731C9.34507 7.99731 9.41857 7.62456 9.41857 7.62456V6.90381ZM8.85757 7.19256C8.85767 7.21147 8.85404 7.23021 8.84689 7.24772C8.83975 7.26523 8.82922 7.28116 8.81592 7.2946C8.80262 7.30804 8.7868 7.31873 8.76937 7.32606C8.75193 7.33339 8.73323 7.33721 8.71432 7.33731C8.67626 7.33691 8.6399 7.32146 8.6132 7.29434C8.58649 7.26721 8.57162 7.23062 8.57182 7.19256C8.57182 7.11306 8.63557 7.04856 8.71432 7.04856C8.79307 7.04856 8.85682 7.11306 8.85682 7.19256H8.85757ZM8.71432 7.91556C8.79307 7.91556 8.85682 7.85106 8.85682 7.77081C8.85682 7.73288 8.84185 7.69647 8.81517 7.66951C8.78849 7.64255 8.75225 7.6272 8.71432 7.62681C8.67639 7.6272 8.64014 7.64255 8.61346 7.66951C8.58678 7.69647 8.57181 7.73288 8.57182 7.77081C8.57182 7.85106 8.63557 7.91556 8.71432 7.91556ZM9.28582 7.77081C9.28602 7.80887 9.27114 7.84546 9.24444 7.87259C9.21773 7.89971 9.18138 7.91516 9.14332 7.91556C9.12441 7.91546 9.1057 7.91164 9.08827 7.90431C9.07083 7.89698 9.05501 7.88629 9.04171 7.87285C9.02841 7.85941 9.01789 7.84348 9.01074 7.82597C9.00359 7.80846 8.99997 7.78972 9.00007 7.77081C9.00007 7.69131 9.06382 7.62681 9.14257 7.62681C9.16141 7.62681 9.18006 7.63054 9.19745 7.6378C9.21483 7.64505 9.23061 7.65568 9.24386 7.66907C9.25712 7.68247 9.26758 7.69835 9.27465 7.71582C9.28173 7.73328 9.28601 7.75197 9.28582 7.77081ZM8.92882 7.62681C9.00757 7.62681 9.07132 7.56156 9.07132 7.48206C9.07152 7.444 9.05664 7.4074 9.02994 7.38028C9.00323 7.35315 8.96688 7.3377 8.92882 7.33731C8.89076 7.3377 8.8544 7.35315 8.8277 7.38028C8.80099 7.4074 8.78612 7.444 8.78632 7.48206C8.78632 7.56156 8.85007 7.62681 8.92882 7.62681ZM9.28582 7.19256C9.28602 7.23062 9.27114 7.26721 9.24444 7.29434C9.21773 7.32146 9.18138 7.33691 9.14332 7.33731C9.12441 7.33721 9.1057 7.33339 9.08827 7.32606C9.07083 7.31873 9.05501 7.30804 9.04171 7.2946C9.02841 7.28116 9.01789 7.26523 9.01074 7.24772C9.00359 7.23021 8.99997 7.21147 9.00007 7.19256C9.00007 7.11306 9.06382 7.04856 9.14257 7.04856C9.16141 7.04856 9.18006 7.05229 9.19745 7.05955C9.21483 7.0668 9.23061 7.07743 9.24386 7.09083C9.25712 7.10422 9.26758 7.1201 9.27465 7.13757C9.28173 7.15503 9.28601 7.17372 9.28582 7.19256ZM9.41857 8.49381H8.42857V9.21531C8.42857 9.21531 8.50207 9.58731 8.92357 9.58731C9.34507 9.58731 9.41857 9.21531 9.41857 9.21531V8.49381ZM8.85757 8.78331C8.85767 8.80222 8.85404 8.82096 8.84689 8.83847C8.83975 8.85598 8.82922 8.87191 8.81592 8.88535C8.80262 8.89879 8.7868 8.90948 8.76937 8.91681C8.75193 8.92414 8.73323 8.92796 8.71432 8.92806C8.67626 8.92766 8.6399 8.91221 8.6132 8.88509C8.58649 8.85796 8.57162 8.82137 8.57182 8.78331C8.57182 8.70306 8.63557 8.63856 8.71432 8.63856C8.79307 8.63856 8.85682 8.70306 8.85682 8.78331H8.85757ZM8.71432 9.50631C8.79307 9.50631 8.85682 9.44106 8.85682 9.36156C8.85702 9.3235 8.84214 9.2869 8.81544 9.25978C8.78873 9.23265 8.75238 9.2172 8.71432 9.21681C8.67626 9.2172 8.6399 9.23265 8.6132 9.25978C8.58649 9.2869 8.57162 9.3235 8.57182 9.36156C8.57182 9.44106 8.63557 9.50631 8.71432 9.50631ZM9.28582 9.36156C9.28602 9.39962 9.27114 9.43621 9.24444 9.46334C9.21773 9.49046 9.18138 9.50591 9.14332 9.50631C9.12441 9.50621 9.1057 9.50239 9.08827 9.49506C9.07083 9.48773 9.05501 9.47704 9.04171 9.4636C9.02841 9.45016 9.01789 9.43423 9.01074 9.41672C9.00359 9.39921 8.99997 9.38047 9.00007 9.36156C9.00007 9.28206 9.06382 9.21681 9.14257 9.21681C9.22207 9.21681 9.28582 9.28206 9.28582 9.36156ZM8.92882 9.21681C9.00757 9.21681 9.07132 9.15231 9.07132 9.07206C9.07132 9.03413 9.05635 8.99772 9.02967 8.97076C9.00299 8.9438 8.96675 8.92845 8.92882 8.92806C8.89089 8.92845 8.85464 8.9438 8.82796 8.97076C8.80128 8.99772 8.78631 9.03413 8.78632 9.07206C8.78632 9.15231 8.85007 9.21681 8.92882 9.21681ZM9.28582 8.78331C9.28602 8.82137 9.27114 8.85796 9.24444 8.88509C9.21773 8.91221 9.18138 8.92766 9.14332 8.92806C9.12441 8.92796 9.1057 8.92414 9.08827 8.91681C9.07083 8.90948 9.05501 8.89879 9.04171 8.88535C9.02841 8.87191 9.01789 8.85598 9.01074 8.83847C9.00359 8.82096 8.99997 8.80222 9.00007 8.78331C9.00007 8.70306 9.06382 8.63856 9.14257 8.63856C9.16147 8.63856 9.18019 8.64232 9.19762 8.64962C9.21506 8.65692 9.23087 8.66762 9.24413 8.68109C9.2574 8.69456 9.26784 8.71054 9.27487 8.72808C9.2819 8.74563 9.28611 8.76441 9.28582 8.78331ZM10.7048 8.49381H9.71482V9.21531C9.71482 9.21531 9.78757 9.58731 10.2098 9.58731C10.6313 9.58731 10.7048 9.21531 10.7048 9.21531V8.49381ZM10.1423 8.78331C10.1425 8.82137 10.1276 8.85796 10.1009 8.88509C10.0742 8.91221 10.0379 8.92766 9.99982 8.92806C9.96176 8.92766 9.9254 8.91221 9.8987 8.88509C9.87199 8.85796 9.85712 8.82137 9.85732 8.78331C9.85732 8.70306 9.92107 8.63856 9.99982 8.63856C10.0786 8.63856 10.1423 8.70306 10.1423 8.78331ZM9.99982 9.50631C10.0786 9.50631 10.1423 9.44106 10.1423 9.36156C10.1425 9.3235 10.1276 9.2869 10.1009 9.25978C10.0742 9.23265 10.0379 9.2172 9.99982 9.21681C9.96176 9.2172 9.9254 9.23265 9.8987 9.25978C9.87199 9.2869 9.85712 9.3235 9.85732 9.36156C9.85732 9.44106 9.92107 9.50631 9.99982 9.50631ZM10.5713 9.36156C10.5715 9.39962 10.5566 9.43621 10.5299 9.46334C10.5032 9.49046 10.4669 9.50591 10.4288 9.50631C10.3908 9.50591 10.3544 9.49046 10.3277 9.46334C10.301 9.43621 10.2861 9.39962 10.2863 9.36156C10.2863 9.28206 10.3501 9.21681 10.4288 9.21681C10.5076 9.21681 10.5713 9.28206 10.5713 9.36156ZM10.2143 9.21681C10.2931 9.21681 10.3568 9.15231 10.3568 9.07206C10.3568 9.03413 10.3419 8.99772 10.3152 8.97076C10.2885 8.9438 10.2522 8.92845 10.2143 8.92806C10.1764 8.92845 10.1401 8.9438 10.1135 8.97076C10.0868 8.99772 10.0718 9.03413 10.0718 9.07206C10.0718 9.15231 10.1356 9.21681 10.2143 9.21681ZM10.5713 8.78331C10.5715 8.82137 10.5566 8.85796 10.5299 8.88509C10.5032 8.91221 10.4669 8.92766 10.4288 8.92806C10.3908 8.92766 10.3544 8.91221 10.3277 8.88509C10.301 8.85796 10.2861 8.82137 10.2863 8.78331C10.2863 8.70306 10.3501 8.63856 10.4288 8.63856C10.5076 8.63856 10.5713 8.70306 10.5713 8.78331ZM8.13307 8.49381H7.14307V9.21531C7.14307 9.21531 7.21657 9.58731 7.63807 9.58731C8.05957 9.58731 8.13307 9.21531 8.13307 9.21531V8.49381ZM7.57132 8.78331C7.57152 8.82137 7.55664 8.85796 7.52994 8.88509C7.50323 8.91221 7.46688 8.92766 7.42882 8.92806C7.39076 8.92766 7.3544 8.91221 7.3277 8.88509C7.30099 8.85796 7.28612 8.82137 7.28632 8.78331C7.28632 8.70306 7.35007 8.63856 7.42882 8.63856C7.50757 8.63856 7.57132 8.70306 7.57132 8.78331ZM7.42882 9.50631C7.50757 9.50631 7.57132 9.44106 7.57132 9.36156C7.57152 9.3235 7.55664 9.2869 7.52994 9.25978C7.50323 9.23265 7.46688 9.2172 7.42882 9.21681C7.39076 9.2172 7.3544 9.23265 7.3277 9.25978C7.30099 9.2869 7.28612 9.3235 7.28632 9.36156C7.28632 9.44106 7.35007 9.50631 7.42882 9.50631ZM8.00032 9.36156C8.00052 9.39962 7.98564 9.43621 7.95894 9.46334C7.93223 9.49046 7.89588 9.50591 7.85782 9.50631C7.83891 9.50621 7.8202 9.50239 7.80277 9.49506C7.78533 9.48773 7.76951 9.47704 7.75621 9.4636C7.74291 9.45016 7.73239 9.43423 7.72524 9.41672C7.71809 9.39921 7.71447 9.38047 7.71457 9.36156C7.71457 9.28206 7.77832 9.21681 7.85707 9.21681C7.93582 9.21681 8.00032 9.28206 8.00032 9.36156ZM7.64332 9.21681C7.72207 9.21681 7.78582 9.15231 7.78582 9.07206C7.78582 9.03413 7.77085 8.99772 7.74417 8.97076C7.71749 8.9438 7.68125 8.92845 7.64332 8.92806C7.60526 8.92826 7.56882 8.94352 7.54198 8.9705C7.51513 8.99748 7.50007 9.034 7.50007 9.07206C7.50007 9.15231 7.56382 9.21681 7.64257 9.21681H7.64332ZM8.00032 8.78331C8.00052 8.82137 7.98564 8.85796 7.95894 8.88509C7.93223 8.91221 7.89588 8.92766 7.85782 8.92806C7.83891 8.92796 7.8202 8.92414 7.80277 8.91681C7.78533 8.90948 7.76951 8.89879 7.75621 8.88535C7.74291 8.87191 7.73239 8.85598 7.72524 8.83847C7.71809 8.82096 7.71447 8.80222 7.71457 8.78331C7.71457 8.70306 7.77832 8.63856 7.85707 8.63856C7.93582 8.63856 8.00032 8.70306 8.00032 8.78331ZM9.41857 10.0846H8.42857V10.8053C8.42857 10.8053 8.50207 11.1781 8.92357 11.1781C9.34507 11.1781 9.41857 10.8053 9.41857 10.8053V10.0846ZM8.85757 10.3733C8.85767 10.3922 8.85404 10.411 8.84689 10.4285C8.83975 10.446 8.82922 10.4619 8.81592 10.4754C8.80262 10.4888 8.7868 10.4995 8.76937 10.5068C8.75193 10.5141 8.73323 10.518 8.71432 10.5181C8.67626 10.5177 8.6399 10.5022 8.6132 10.4751C8.58649 10.448 8.57162 10.4114 8.57182 10.3733C8.57182 10.2938 8.63557 10.2293 8.71432 10.2293C8.79307 10.2293 8.85682 10.2938 8.85682 10.3733H8.85757ZM8.71432 11.0963C8.79307 11.0963 8.85682 11.0318 8.85682 10.9516C8.85682 10.9136 8.84185 10.8772 8.81517 10.8503C8.78849 10.8233 8.75225 10.808 8.71432 10.8076C8.67639 10.808 8.64014 10.8233 8.61346 10.8503C8.58678 10.8772 8.57181 10.9136 8.57182 10.9516C8.57182 11.0318 8.63557 11.0963 8.71432 11.0963ZM9.28582 10.9516C9.28602 10.9896 9.27114 11.0262 9.24444 11.0533C9.21773 11.0805 9.18138 11.0959 9.14332 11.0963C9.12441 11.0962 9.1057 11.0924 9.08827 11.0851C9.07083 11.0777 9.05501 11.067 9.04171 11.0536C9.02841 11.0402 9.01789 11.0242 9.01074 11.0067C9.00359 10.9892 8.99997 10.9705 9.00007 10.9516C9.00007 10.8721 9.06382 10.8076 9.14257 10.8076C9.16141 10.8076 9.18006 10.8113 9.19745 10.8185C9.21483 10.8258 9.23061 10.8364 9.24386 10.8498C9.25712 10.8632 9.26758 10.8791 9.27465 10.8966C9.28173 10.914 9.28601 10.9327 9.28582 10.9516ZM8.92882 10.8076C9.00757 10.8076 9.07132 10.7423 9.07132 10.6628C9.07152 10.6247 9.05664 10.5882 9.02994 10.561C9.00323 10.5339 8.96688 10.5185 8.92882 10.5181C8.89076 10.5185 8.8544 10.5339 8.8277 10.561C8.80099 10.5882 8.78612 10.6247 8.78632 10.6628C8.78632 10.7423 8.85007 10.8076 8.92882 10.8076ZM9.28582 10.3733C9.28602 10.4114 9.27114 10.448 9.24444 10.4751C9.21773 10.5022 9.18138 10.5177 9.14332 10.5181C9.12441 10.518 9.1057 10.5141 9.08827 10.5068C9.07083 10.4995 9.05501 10.4888 9.04171 10.4754C9.02841 10.4619 9.01789 10.446 9.01074 10.4285C9.00359 10.411 8.99997 10.3922 9.00007 10.3733C9.00007 10.2938 9.06382 10.2293 9.14257 10.2293C9.16141 10.2293 9.18006 10.233 9.19745 10.2403C9.21483 10.2476 9.23061 10.2582 9.24386 10.2716C9.25712 10.285 9.26758 10.3009 9.27465 10.3183C9.28173 10.3358 9.28601 10.3545 9.28582 10.3733Z" fill="#013399"/>
</g>
</g>
<defs>
<clipPath id="clip0_268_3026">
<rect width="24" height="18" fill="white"/>
</clipPath>
</defs>
</svg>
