<svg width="24" height="24" viewBox="0 0 24 24" fill="none" xmlns="http://www.w3.org/2000/svg">
<path d="M14.7099 6.71005C14.6174 6.61734 14.5075 6.5438 14.3865 6.49361C14.2656 6.44343 14.1359 6.4176 14.0049 6.4176C13.874 6.4176 13.7443 6.44343 13.6233 6.49361C13.5023 6.5438 13.3924 6.61734 13.2999 6.71005L8.70992 11.3C8.61722 11.3926 8.54367 11.5024 8.49349 11.6234C8.44331 11.7444 8.41748 11.8741 8.41748 12.005C8.41748 12.136 8.44331 12.2657 8.49349 12.3867C8.54367 12.5076 8.61722 12.6175 8.70992 12.71L13.2999 17.3C13.3925 17.3926 13.5024 17.4661 13.6234 17.5162C13.7443 17.5663 13.874 17.5921 14.0049 17.5921C14.1359 17.5921 14.2655 17.5663 14.3865 17.5162C14.5074 17.4661 14.6173 17.3926 14.7099 17.3C14.8025 17.2075 14.8759 17.0976 14.9261 16.9766C14.9762 16.8556 15.0019 16.726 15.0019 16.595C15.0019 16.4641 14.9762 16.3345 14.9261 16.2135C14.8759 16.0925 14.8025 15.9826 14.7099 15.89L10.8299 12L14.7099 8.12005C15.0999 7.73005 15.0899 7.09005 14.7099 6.71005Z" fill="#8E98A8"/>
</svg>
