<svg width="24" height="24" viewBox="0 0 24 24" fill="none" xmlns="http://www.w3.org/2000/svg">
<path fill-rule="evenodd" clip-rule="evenodd" d="M12.4381 2.77803C12.2936 2.73193 12.1369 2.74266 12.0001 2.80803C11.9323 2.83942 11.8721 2.8852 11.8237 2.94219C11.7754 2.99917 11.74 3.066 11.7201 3.13803L11.2441 4.97203C11.0778 5.61299 10.8361 6.23197 10.5241 6.81603C10.0391 7.72303 9.30608 8.42002 8.62608 9.00602L7.18808 10.246C7.07808 10.3409 6.99216 10.4605 6.9374 10.5951C6.88264 10.7297 6.8606 10.8753 6.87308 11.02L7.68508 20.413C7.70483 20.6412 7.80931 20.8536 7.97793 21.0086C8.14655 21.1635 8.36709 21.2496 8.59608 21.25H13.2451C16.3811 21.25 19.0241 19.068 19.5311 16.137L20.2361 12.057C20.259 11.9255 20.2528 11.7906 20.2181 11.6618C20.1834 11.5329 20.1209 11.4132 20.0351 11.311C19.9493 11.2088 19.8422 11.1266 19.7213 11.0701C19.6003 11.0136 19.4685 10.9842 19.3351 10.984H14.1541C13.1771 10.984 12.4341 10.108 12.5921 9.14403L13.2551 5.10003C13.3459 4.54612 13.32 3.97935 13.1791 3.43603C13.1393 3.29219 13.0638 3.16075 12.9596 3.05393C12.8554 2.9471 12.7259 2.86836 12.5831 2.82503L12.4381 2.77803ZM11.3481 1.45703C11.8317 1.22438 12.3861 1.18608 12.8971 1.35003L13.0421 1.39703C13.8191 1.64703 14.4251 2.26703 14.6311 3.05903C14.8241 3.80503 14.8601 4.58303 14.7351 5.34303L14.0721 9.38702C14.07 9.39895 14.0706 9.41118 14.0738 9.42286C14.077 9.43453 14.0827 9.44537 14.0905 9.45461C14.0983 9.46385 14.1081 9.47127 14.119 9.47635C14.13 9.48143 14.142 9.48405 14.1541 9.48403H19.3341C20.8341 9.48403 21.9701 10.836 21.7141 12.313L21.0091 16.393C20.3711 20.081 17.0711 22.75 13.2451 22.75H8.59608C7.99167 22.7495 7.40941 22.5225 6.96418 22.1137C6.51896 21.705 6.24311 21.1442 6.19108 20.542L5.37808 11.149C5.34503 10.7676 5.40304 10.3837 5.54733 10.029C5.69163 9.67438 5.91809 9.35906 6.20808 9.10903L7.64808 7.86903C8.30308 7.30503 8.85408 6.75803 9.20008 6.10903C9.45698 5.62973 9.65572 5.12146 9.79208 4.59503L10.2681 2.76203C10.3425 2.47912 10.4777 2.21583 10.6642 1.99046C10.8507 1.76509 11.0841 1.58306 11.3481 1.45703ZM2.96808 9.48502C3.16134 9.47657 3.35039 9.54312 3.49574 9.67077C3.64109 9.79842 3.7315 9.97729 3.74808 10.17L4.71808 21.406C4.73451 21.5733 4.71666 21.7423 4.66562 21.9025C4.61458 22.0626 4.53142 22.2107 4.42122 22.3377C4.31102 22.4647 4.17609 22.5679 4.02468 22.641C3.87327 22.714 3.70855 22.7555 3.54058 22.7628C3.37261 22.77 3.20492 22.743 3.04775 22.6833C2.89058 22.6236 2.74723 22.5325 2.62646 22.4155C2.50568 22.2986 2.41002 22.1582 2.3453 22.003C2.28059 21.8479 2.24819 21.6811 2.25008 21.513V10.234C2.2499 10.0405 2.32451 9.85446 2.45832 9.71469C2.59212 9.57493 2.77476 9.49328 2.96808 9.48502Z" fill="url(#paint0_linear_268_153)"/>
<defs>
<linearGradient id="paint0_linear_268_153" x1="12.0001" y1="1.24982" x2="12.0001" y2="22.7639" gradientUnits="userSpaceOnUse">
<stop stop-color="#8E2DE2"/>
<stop offset="1" stop-color="#4A00E0"/>
</linearGradient>
</defs>
</svg>
