<svg width="184" height="36" viewBox="0 0 184 36" fill="none" xmlns="http://www.w3.org/2000/svg">
<rect width="94" height="36" rx="5" fill="#E9EBF8"/>
<path d="M10.7699 7.63636H16.0795L21.6875 21.3182H21.9261L27.5341 7.63636H32.8438V28H28.6676V14.7457H28.4986L23.2287 27.9006H20.3849L15.1151 14.696H14.946V28H10.7699V7.63636ZM39.9009 28H35.2873L42.3171 7.63636H47.8654L54.8853 28H50.2717L45.1708 12.2898H45.0117L39.9009 28ZM39.6126 19.9957H50.5103V23.3565H39.6126V19.9957ZM61.6417 7.63636V28H57.3363V7.63636H61.6417ZM82.2166 7.63636V28H78.4979L69.6385 15.1832H69.4893V28H65.1839V7.63636H68.9624L77.7521 20.4432H77.9311V7.63636H82.2166Z" fill="url(#paint0_linear_268_3093)"/>
<path d="M112.986 14.0653C112.918 13.3778 112.625 12.8437 112.108 12.4631C111.591 12.0824 110.889 11.892 110.003 11.892C109.401 11.892 108.892 11.9773 108.477 12.1477C108.063 12.3125 107.744 12.5426 107.523 12.8381C107.307 13.1335 107.199 13.4688 107.199 13.8438C107.188 14.1562 107.253 14.429 107.395 14.6619C107.543 14.8949 107.744 15.0966 108 15.267C108.256 15.4318 108.551 15.5767 108.886 15.7017C109.222 15.821 109.58 15.9233 109.96 16.0085L111.528 16.3835C112.29 16.554 112.989 16.7812 113.625 17.0653C114.261 17.3494 114.813 17.6989 115.278 18.1136C115.744 18.5284 116.105 19.017 116.361 19.5795C116.622 20.142 116.756 20.7869 116.761 21.5142C116.756 22.5824 116.483 23.5085 115.943 24.2926C115.409 25.071 114.636 25.6761 113.625 26.108C112.619 26.5341 111.406 26.7472 109.986 26.7472C108.577 26.7472 107.349 26.5312 106.304 26.0994C105.264 25.6676 104.452 25.0284 103.866 24.1818C103.287 23.3295 102.983 22.2756 102.955 21.0199H106.526C106.565 21.6051 106.733 22.0937 107.028 22.4858C107.33 22.8722 107.73 23.1648 108.23 23.3636C108.736 23.5568 109.307 23.6534 109.943 23.6534C110.568 23.6534 111.111 23.5625 111.571 23.3807C112.037 23.1989 112.398 22.946 112.653 22.6222C112.909 22.2983 113.037 21.9261 113.037 21.5057C113.037 21.1136 112.92 20.7841 112.688 20.517C112.46 20.25 112.125 20.0227 111.682 19.8352C111.244 19.6477 110.707 19.4773 110.071 19.3239L108.17 18.8466C106.699 18.4886 105.537 17.929 104.685 17.1676C103.832 16.4062 103.409 15.3807 103.415 14.0909C103.409 13.0341 103.69 12.1108 104.259 11.321C104.832 10.5312 105.619 9.91477 106.619 9.47159C107.619 9.02841 108.756 8.80682 110.028 8.80682C111.324 8.80682 112.455 9.02841 113.42 9.47159C114.392 9.91477 115.148 10.5312 115.688 11.321C116.227 12.1108 116.506 13.0256 116.523 14.0653H112.986ZM118.579 12.0881V9.04545H132.914V12.0881H127.57V26.5H123.923V12.0881H118.579ZM136.151 26.5H132.196L138.222 9.04545H142.977L148.994 26.5H145.04L140.668 13.0341H140.531L136.151 26.5ZM135.903 19.6392H145.244V22.5199H135.903V19.6392ZM165.675 15.1562H161.942C161.874 14.6733 161.735 14.2443 161.525 13.8693C161.315 13.4886 161.045 13.1648 160.715 12.8977C160.386 12.6307 160.005 12.4261 159.573 12.2841C159.147 12.142 158.684 12.071 158.184 12.071C157.281 12.071 156.494 12.2955 155.823 12.7443C155.153 13.1875 154.633 13.8352 154.263 14.6875C153.894 15.5341 153.71 16.5625 153.71 17.7727C153.71 19.017 153.894 20.0625 154.263 20.9091C154.638 21.7557 155.161 22.3949 155.832 22.8267C156.502 23.2585 157.278 23.4744 158.158 23.4744C158.653 23.4744 159.11 23.4091 159.531 23.2784C159.957 23.1477 160.335 22.9574 160.664 22.7074C160.994 22.4517 161.266 22.142 161.482 21.7784C161.704 21.4148 161.857 21 161.942 20.5341L165.675 20.5511C165.579 21.3523 165.337 22.125 164.951 22.8693C164.57 23.608 164.056 24.2699 163.408 24.8551C162.766 25.4347 161.999 25.8949 161.107 26.2358C160.221 26.571 159.218 26.7386 158.099 26.7386C156.542 26.7386 155.15 26.3864 153.923 25.6818C152.701 24.9773 151.735 23.9574 151.025 22.6222C150.32 21.2869 149.968 19.6705 149.968 17.7727C149.968 15.8693 150.326 14.25 151.042 12.9148C151.758 11.5795 152.729 10.5625 153.957 9.86364C155.184 9.15909 156.565 8.80682 158.099 8.80682C159.11 8.80682 160.048 8.94886 160.911 9.23295C161.781 9.51705 162.55 9.93182 163.221 10.4773C163.891 11.017 164.437 11.679 164.857 12.4631C165.283 13.2472 165.556 14.1449 165.675 15.1562ZM168.322 26.5V9.04545H172.012V16.7415H172.242L178.523 9.04545H182.947L176.469 16.8608L183.023 26.5H178.609L173.827 19.3239L172.012 21.5398V26.5H168.322Z" fill="#E9EBF8"/>
<defs>
<linearGradient id="paint0_linear_268_3093" x1="47" y1="1" x2="47" y2="35" gradientUnits="userSpaceOnUse">
<stop stop-color="#1E1E1E"/>
<stop offset="1" stop-color="#444444"/>
</linearGradient>
</defs>
</svg>
