<svg width="24" height="24" viewBox="0 0 24 24" fill="none" xmlns="http://www.w3.org/2000/svg">
<path d="M21.493 8.47499C22.2995 10.6412 22.3405 13.0182 21.6092 15.211C20.8779 17.4038 19.4183 19.2803 17.473 20.5288C15.5276 21.7772 13.2137 22.3225 10.9156 22.074C8.61745 21.8254 6.47358 20.798 4.84016 19.1625C3.00533 17.3337 1.94128 14.8712 1.86696 12.2817C1.79265 9.69217 2.71374 7.17268 4.44067 5.24168C6.1676 3.31068 8.56901 2.11507 11.1507 1.90089C13.7324 1.68672 16.298 2.47027 18.3195 4.0903L20.2039 2.20499C20.3086 2.10034 20.4328 2.01733 20.5695 1.9607C20.7062 1.90406 20.8528 1.87491 21.0008 1.87491C21.1488 1.87491 21.2953 1.90406 21.4321 1.9607C21.5688 2.01733 21.693 2.10034 21.7977 2.20499C21.9023 2.30964 21.9853 2.43387 22.042 2.5706C22.0986 2.70733 22.1277 2.85387 22.1277 3.00186C22.1277 3.14986 22.0986 3.2964 22.042 3.43313C21.9853 3.56986 21.9023 3.69409 21.7977 3.79874L12.7977 12.7987C12.693 12.9034 12.5688 12.9864 12.4321 13.043C12.2953 13.0997 12.1488 13.1288 12.0008 13.1288C11.8528 13.1288 11.7062 13.0997 11.5695 13.043C11.4328 12.9864 11.3086 12.9034 11.2039 12.7987C11.0993 12.6941 11.0163 12.5699 10.9596 12.4331C10.903 12.2964 10.8738 12.1499 10.8738 12.0019C10.8738 11.8539 10.903 11.7073 10.9596 11.5706C11.0163 11.4339 11.0993 11.3096 11.2039 11.205L13.4539 8.95499C12.8198 8.65201 12.1069 8.55457 11.4147 8.67624C10.7225 8.79792 10.0855 9.13264 9.59272 9.63372C9.09991 10.1348 8.77582 10.7772 8.66568 11.4713C8.55553 12.1654 8.66482 12.8766 8.9783 13.5057C9.29178 14.1347 9.7938 14.6501 10.4143 14.9801C11.0348 15.3101 11.7429 15.4381 12.4397 15.3464C13.1365 15.2546 13.7872 14.9476 14.3011 14.4682C14.8151 13.9888 15.1665 13.3609 15.3064 12.6722C15.3653 12.3797 15.5381 12.1225 15.7866 11.9573C16.0351 11.7922 16.339 11.7325 16.6316 11.7914C16.9241 11.8503 17.1812 12.023 17.3464 12.2716C17.5116 12.5201 17.5713 12.824 17.5123 13.1166C17.2727 14.297 16.6605 15.3694 15.7657 16.1758C14.8709 16.9823 13.7409 17.4802 12.542 17.5963C11.3431 17.7124 10.1385 17.4406 9.10565 16.8208C8.07277 16.2011 7.26612 15.2661 6.80441 14.1536C6.3427 13.041 6.25033 11.8096 6.54088 10.6407C6.83143 9.47169 7.48957 8.42685 8.41842 7.65993C9.34727 6.89301 10.4978 6.44451 11.7006 6.38045C12.9035 6.31638 14.0951 6.64013 15.1002 7.30405L16.7155 5.69436C15.1981 4.56116 13.3232 4.01271 11.4344 4.14952C9.54553 4.28633 7.76924 5.09923 6.43103 6.43926C5.09282 7.77928 4.28233 9.55668 4.14809 11.4457C4.01384 13.3347 4.56483 15.2089 5.70009 16.7247C6.83535 18.2405 8.47883 19.2964 10.3294 19.699C12.1799 20.1015 14.1135 19.8237 15.7758 18.9165C17.4382 18.0093 18.7179 16.5334 19.3805 14.7593C20.0431 12.9852 20.0442 11.0317 19.3836 9.25686C19.331 9.1181 19.3064 8.97031 19.3112 8.822C19.3159 8.67368 19.35 8.52778 19.4114 8.39268C19.4728 8.25759 19.5603 8.13598 19.6689 8.03485C19.7775 7.93373 19.905 7.85509 20.0442 7.80346C20.1833 7.75183 20.3312 7.72823 20.4795 7.73403C20.6278 7.73982 20.7735 7.7749 20.9081 7.83723C21.0428 7.89956 21.1638 7.98792 21.2642 8.09721C21.3645 8.20651 21.4423 8.33458 21.493 8.47405V8.47499Z" fill="url(#paint0_linear_267_101)"/>
<defs>
<linearGradient id="paint0_linear_267_101" x1="11.996" y1="1.86621" x2="11.996" y2="22.1327" gradientUnits="userSpaceOnUse">
<stop stop-color="#8E2DE2"/>
<stop offset="1" stop-color="#4A00E0"/>
</linearGradient>
</defs>
</svg>
