<svg width="24" height="24" viewBox="0 0 24 24" fill="none" xmlns="http://www.w3.org/2000/svg">
<path d="M12 21C11.7017 21 11.4155 20.8814 11.2045 20.6705C10.9936 20.4595 10.875 20.1733 10.875 19.875V6.69446L6.46354 11.625C6.26409 11.8453 5.98553 11.9778 5.68871 11.9935C5.39189 12.0092 5.10093 11.9068 4.87938 11.7086C4.65784 11.5104 4.52372 11.2327 4.50632 10.9359C4.48893 10.6392 4.58967 10.3476 4.78654 10.125L11.1615 2.99996C11.2671 2.88174 11.3964 2.78715 11.541 2.72239C11.6856 2.65762 11.8423 2.62415 12.0008 2.62415C12.1593 2.62415 12.3159 2.65762 12.4606 2.72239C12.6052 2.78715 12.7345 2.88174 12.84 2.99996L19.215 10.125C19.3145 10.2349 19.3913 10.3634 19.441 10.5032C19.4906 10.6429 19.5122 10.7911 19.5043 10.9391C19.4965 11.0872 19.4595 11.2323 19.3954 11.366C19.3313 11.4997 19.2414 11.6195 19.1309 11.7183C19.0204 11.8172 18.8914 11.8932 18.7514 11.9421C18.6114 11.9909 18.4631 12.0116 18.3151 12.0029C18.167 11.9942 18.0222 11.9564 17.8888 11.8915C17.7555 11.8266 17.6363 11.7361 17.538 11.625L13.125 6.69446V19.875C13.125 20.1733 13.0065 20.4595 12.7955 20.6705C12.5846 20.8814 12.2984 21 12 21Z" fill="#E9EBF8"/>
</svg>
